+8_ID_stride6.mot
nRows=13
nColumns=38

name +8_ID_stride6.mot
datacolumns 38
datarows 13
range 3.5050000000 3.5650000000
endheader
time	pelvis_tilt_moment	pelvis_list_moment	pelvis_rotation_moment	pelvis_tx_force	pelvis_ty_force	pelvis_tz_force	hip_flexion_r_moment	hip_adduction_r_moment	hip_rotation_r_moment	knee_angle_r_moment	ankle_angle_r_moment	subtalar_angle_r_moment	mtp_angle_r_moment	hip_flexion_l_moment	hip_adduction_l_moment	hip_rotation_l_moment	knee_angle_l_moment	ankle_angle_l_moment	subtalar_angle_l_moment	mtp_angle_l_moment	lumbar_extension_moment	lumbar_bending_moment	lumbar_rotation_moment	arm_flex_r_moment	arm_add_r_moment	arm_rot_r_moment	elbow_flex_r_moment	pro_sup_r_moment	wrist_flex_r_moment	wrist_dev_r_moment	arm_flex_l_moment	arm_add_l_moment	arm_rot_l_moment	elbow_flex_l_moment	pro_sup_l_moment	wrist_flex_l_moment	wrist_dev_l_moment
        3.5050000000	      -18.1052636088	       -1.2725445879	       -4.3960538564	       26.7351449907	      -19.7141748146	     -106.3990955119	        4.9666555652	      -49.5419405769	       25.9486214905	       20.0692922759	     -203.3079558586	       47.2705736659	       -0.0224754441	       -5.9070589009	        4.0740961222	       -2.0382982738	       -2.5784739567	        2.2318936106	       -0.1348176549	        0.1291090167	       23.6724172524	       11.3977590127	      -42.2661071103	       -0.1491181788	       -2.9225115619	       -4.0124574503	        5.2770132830	       -0.2370947874	       -0.3397166814	       -0.5360000646	        8.0665234917	        6.9666473303	        4.8929322488	        5.6133823887	        0.0340682522	        0.6225175237	       -0.3570068411	
        3.5100000000	      -11.8669150920	       -4.9774815318	       -3.6489758299	       48.4452020061	      -40.7245037879	     -107.7238910399	        6.1578616654	      -50.7336344749	       26.0348233863	       13.4774590509	     -194.8074652820	       44.5426338117	       -0.0309839594	       -8.9603147136	        3.4689755420	       -1.6589320503	       -2.6699183642	        2.2887096371	       -0.1920600745	        0.1299759240	       16.8501471586	       12.5501303257	      -43.2062268090	       -0.2882310143	       -3.2671063952	       -4.2233526598	        4.8124922053	       -0.2359527350	       -0.3705091631	       -0.5019943761	        8.2375420647	        6.9270192057	        4.8979813022	        5.2412372934	        0.0441140387	        0.6194873629	       -0.3228621235	
        3.5150000000	       -5.1386881740	      -16.8968405429	       -1.0835374508	       71.9940214742	      -47.4706655264	      -99.2880883338	        4.3608749008	      -53.4649269763	       26.8800573483	        4.6553498083	     -185.1183720205	       41.7732481362	       -0.0393679465	      -13.0429987389	        3.2295563134	       -0.9762829668	       -3.1919205525	        2.3543533506	       -0.2711370482	        0.1332606632	       11.4160831097	       14.5451326425	      -43.3245281487	       -0.4667100915	       -3.4382058835	       -4.2766365958	        4.3551847104	       -0.2307849506	       -0.3857412038	       -0.4658582950	        8.2478012211	        6.7351790275	        4.8320277590	        4.8839159136	        0.0510949988	        0.6054885671	       -0.2923955770	
        3.5200000000	       -2.1871206037	      -28.8350336803	        0.1347584089	       90.9797774787	      -46.9755555858	      -79.6526685417	        1.6303232146	      -54.0522644837	       26.9646934392	       -2.8794704667	     -173.4882818748	       38.7136529510	       -0.0470977541	      -18.1083586028	        3.2131707843	       -0.0248809473	       -4.2336254448	        2.4262715238	       -0.3654293274	        0.1383675470	        7.1886698887	       17.0132373991	      -42.6608740069	       -0.6999278942	       -3.4757408683	       -4.2372656074	        3.9061677880	       -0.2220291435	       -0.3894505402	       -0.4276012094	        8.0630931390	        6.3804646911	        4.6438195371	        4.5444618781	        0.0550881750	        0.5817164507	       -0.2653742900	
        3.5250000000	       -3.5324021155	      -35.6251155122	       -1.5355991406	      101.6074292149	      -32.3741127184	      -60.2482709166	        3.0883595791	      -48.4048388742	       23.7333907541	       -7.3275815807	     -160.2073391119	       35.4145709334	       -0.0536449803	      -23.9110748255	        3.6725065105	        1.0946461245	       -5.7157945967	        2.5027239358	       -0.4639705253	        0.1450682141	        4.0374691646	       19.4862256501	      -41.2740889320	       -0.9979434854	       -3.3192443301	       -4.0331695578	        3.4576247854	       -0.2098288731	       -0.3794342190	       -0.3865593333	        7.6958309999	        5.8584957176	        4.3593410758	        4.2134140603	        0.0566065948	        0.5490949151	       -0.2407588597	
        3.5300000000	       -8.3285777944	      -34.6155432884	       -6.2712875655	      100.8899927678	      -13.0151877699	      -44.8873643698	       10.7182636617	      -38.0021170039	       17.9394346864	       -8.5702613557	     -146.0344084397	       32.1088837401	       -0.0586854421	      -30.0660171739	        4.5288805078	        2.2268400733	       -7.5414823443	        2.5797739317	       -0.5526193956	        0.1528291312	        1.8271205409	       21.2825714564	      -39.4411939529	       -1.3652048181	       -2.9883781697	       -3.7146181152	        2.9901911287	       -0.1940387363	       -0.3585931263	       -0.3412523462	        7.1810622474	        5.1613666219	        3.9834722688	        3.8643593729	        0.0558961117	        0.5080386221	       -0.2161839364	
        3.5350000000	       -9.5423963812	      -29.9352387602	      -11.9899375656	       92.8657874264	        1.8749788007	      -31.5011286820	       21.2864986880	      -26.6768111341	       11.5994838655	       -8.3585762056	     -131.0122995969	       29.0044431196	       -0.0590081586	      -36.1199519845	        5.7077610374	        3.1796325927	       -9.6166670950	        2.6495166965	       -0.6088707345	        0.1607831936	        0.4702746843	       20.9193710164	      -37.2995078862	       -1.8063424547	       -2.4926815515	       -3.2890460244	        2.4690669102	       -0.1741185685	       -0.3293096211	       -0.2889331101	        6.5226766206	        4.2783247318	        3.5200367632	        3.4501590463	        0.0541206164	        0.4583081967	       -0.1875703425	
        3.5400000000	       -9.3023159937	      -21.7662282179	      -15.3178936738	       74.2335572815	        7.0470333664	      -17.7083691983	       31.7292937813	      -17.9020411470	        7.6645436634	       -8.1466500946	     -115.5242031354	       25.9991010030	       -0.0586351616	      -41.5391163140	        7.0338240888	        3.8030528539	      -11.8173540731	        2.7111270189	       -0.6285946684	        0.1681246339	       -0.3610211393	       19.2506199073	      -34.9439467136	       -2.3161843902	       -1.8595334082	       -2.7777528576	        1.8779400768	       -0.1501369918	       -0.2938682396	       -0.2286095053	        5.7288391129	        3.2338233563	        2.9855721712	        2.9477630507	        0.0518020751	        0.4008603212	       -0.1527960950	
        3.5450000000	       -0.4139595471	      -13.3537329855	      -15.8499154215	       48.0373260197	       -8.7695661737	       -0.9575571576	       39.4626745221	      -13.5106206720	        6.6721365724	       -9.2692330046	      -99.9756456770	       22.9755625369	       -0.0511097388	      -45.8673733203	        8.3035311316	        4.0617358785	      -14.0504611469	        2.7575463793	       -0.6052783982	        0.1738812330	       -0.8188907391	       14.3580627407	      -32.4265480780	       -2.9016620615	       -1.1198793603	       -2.1978587837	        1.1805155601	       -0.1214599298	       -0.2545184418	       -0.1572969258	        4.7812347893	        2.0392752862	        2.3908342066	        2.3043703929	        0.0501275123	        0.3355809515	       -0.1073081267	
        3.5500000000	       12.1142424730	       -4.2094650810	      -12.4162371190	       16.4731201511	      -52.3831753379	       18.5106978275	       44.5521556746	      -12.9040396543	        9.0551877768	      -11.6256015105	      -85.5119002665	       19.5793188309	       -0.0374620202	      -49.4351347168	        9.3969352547	        3.8399198695	      -16.4599859081	        2.7579039280	       -0.5313673435	        0.1762507533	       -1.1956747758	        7.4835238978	      -29.7638049061	       -3.5520211914	       -0.3601121465	       -1.5937460957	        0.3720828811	       -0.0890025463	       -0.2147673171	       -0.0753646693	        3.6818680497	        0.7832835526	        1.7765048364	        1.5111982902	        0.0502616923	        0.2653873002	       -0.0497410585	
        3.5550000000	       24.1355083018	        8.6417943713	       -7.9129783610	      -16.7760292588	     -120.5208144730	       36.4068142690	       50.4239298213	      -11.8028111498	       11.5628803500	      -13.1249831721	      -72.1525758431	       15.9121009991	       -0.0163719973	      -52.3534885510	       10.2500070801	        3.2322041420	      -19.1567745094	        2.7102059207	       -0.4188001724	        0.1740804011	       -1.8067800638	       -0.3036615805	      -26.9364321808	       -4.2536468661	        0.3173108800	       -1.0162497528	       -0.5293869679	       -0.0543384722	       -0.1781009764	        0.0148455363	        2.4344498548	       -0.4156550571	        1.1947926707	        0.5857678959	        0.0525909402	        0.1945411398	        0.0192799864	
        3.5600000000	       29.6513912837	       26.6014032633	       -5.4044834845	      -46.6035112816	     -204.2280027242	       48.6109562315	       59.4869212881	       -7.9313212810	       11.2629923318	      -12.2749561291	      -58.8949572237	       12.5796602732	        0.0128763712	      -54.9235498416	       10.8939682628	        2.2673703588	      -22.2888010050	        2.5888687044	       -0.2813813751	        0.1671100489	       -2.8634212166	       -7.5448394263	      -23.9490795560	       -4.9825405842	        0.8020373279	       -0.5182417898	       -1.4792852675	       -0.0198008271	       -0.1477201554	        0.1086351065	        1.0646311637	       -1.4298051697	        0.7014270086	       -0.4230640608	        0.0581408893	        0.1284245886	        0.0967018771	
        3.5650000000	       29.5885149420	       47.0002279812	       -5.0458256630	      -58.5660711245	     -284.2090480723	       52.2150960890	       71.7965137040	        0.3567727489	        8.3225284764	       -8.4697728091	      -45.4989800741	       10.2408116253	        0.0505251394	      -57.4881845087	       11.3066061144	        1.0915265420	      -26.0226671876	        2.3917439007	       -0.1440083907	        0.1542504625	       -4.5337725182	      -11.6660161831	      -20.8651954869	       -5.6935458413	        0.9240201761	       -0.1722470117	       -2.3891003706	        0.0109540808	       -0.1275417501	        0.1974578122	       -0.3672900984	       -2.0283242080	        0.3905995189	       -1.4195071061	        0.0666694207	        0.0749356094	        0.1759262672	
